<?xml version="1.0" encoding="UTF-8" standalone="no"?>
<svg width="896px" height="708px" viewBox="0 0 896 708" version="1.1" xmlns="http://www.w3.org/2000/svg" xmlns:xlink="http://www.w3.org/1999/xlink">
    <!-- Generator: Sketch 3.6 (26304) - http://www.bohemiancoding.com/sketch -->
    <title>noun_161844_cc</title>
    <desc>Created with Sketch.</desc>
    <defs></defs>
    <g id="Page-1" stroke="none" stroke-width="1" fill="none" fill-rule="evenodd">
        <g id="noun_161844_cc" fill="#000000">
            <path d="M760.868195,386.410155 C756.374857,386.410155 752.101531,385.430851 747.716664,385.043018 C752.205908,412.653866 755.155077,440.911443 755.730175,470.043947 C755.730175,469.849519 755.625798,469.655091 755.625798,469.360378 C755.92051,472.012788 756.481282,474.598682 756.571333,477.253139 C749.618991,622.448009 575.141191,705.522053 378.544627,707.25144 C181.882572,705.523076 7.47231,622.448009 0.41559,477.253139 C0.606948,474.598683 1.182046,472.012788 1.357032,469.360378 L1.357032,469.466802 C7.171458,209.405811 173.606071,0.747538 378.544627,0.747538 C490.734802,0.747538 591.205051,63.566259 660.291523,162.883242 C684.929666,134.906051 720.610307,117.040148 760.867173,117.040148 C835.262557,117.040148 895.581341,177.275021 895.581341,251.653008 C895.583386,326.084208 835.263579,386.410155 760.868195,386.410155 L760.868195,386.410155 Z M601.94465,372.505471 C547.140463,341.297702 467.227412,320.459094 378.544627,320.550169 C289.777931,320.459095 209.841344,341.297702 154.956316,372.505471 C99.279249,404.094933 73.029398,442.920194 73.483746,477.25314 C73.030421,511.901265 99.385672,550.616008 154.956316,582.301661 C209.841344,613.525803 289.777931,634.27129 378.544627,634.182262 C467.226389,634.27129 547.140463,613.52478 601.94465,582.301661 C657.615577,550.616008 683.991294,511.901264 683.502154,477.25314 C683.991294,442.91917 657.6166,404.094933 601.94465,372.505471 L601.94465,372.505471 Z M760.868195,190.005973 C732.315905,190.112397 709.383614,209.877556 702.343267,236.14378 C712.142447,257.275053 720.717753,279.456238 728.032346,302.470395 C737.657564,308.655258 748.484144,313.21204 760.868195,313.320511 C794.817401,313.213064 822.429273,285.633938 822.514207,251.65301 C822.429273,217.615798 794.817402,190.112397 760.868195,190.005973 L760.868195,190.005973 Z" id="Shape" transform="translate(447.998466, 353.999489) scale(1, -1) translate(-447.998466, -353.999489) "></path>
        </g>
    </g>
</svg>